<?xml version="1.0" encoding="utf-8" ?><svg xmlns="http://www.w3.org/2000/svg" xmlns:xlink="http://www.w3.org/1999/xlink" width="494" height="485" viewBox="0 0 494 485"><clipPath id="cl_5"><rect width="494" height="485"/></clipPath><g clip-path="url(#cl_5)"><path fill="#B14845" transform="translate(-457 -142)" d="M517.318 243.598C521.943 248.152 531.374 256.978 534.908 261.702C534.355 274.849 536.057 284.883 545.424 295.136C552.51 302.954 562.505 307.504 573.053 307.714C575.803 307.795 578.254 307.551 580.976 307.229L622.102 348.056C639.785 365.62 659.84 382.843 670.739 405.295C676.153 416.449 677.455 424.938 680.035 436.811C680.788 443.313 680.589 450.117 680.391 456.862C680.217 462.813 680.044 468.719 680.527 474.334C681.314 483.495 696.274 492.661 703.838 498.236C729.057 480.187 728.808 476.218 727.879 461.405C727.498 455.34 727.003 447.456 728.096 436.043C726.845 431.577 725.731 421.262 724.811 416.046C722.274 401.675 713.701 377.908 704.08 366.993L704.116 366.599C696.236 355.679 684.926 345.197 675.277 335.618L635.476 296.124C628.797 289.488 619.925 281.095 613.718 274.239C613.986 260.793 612.527 250.656 602.646 240.248C595.579 232.821 585.833 228.53 575.584 228.334C573.061 228.302 570.538 228.368 568.02 228.533C553.336 214.127 538.759 199.613 524.29 184.992C522.728 183.43 521.085 181.683 519.365 179.855C510.721 170.664 500.168 159.444 488.544 159.653C482.447 159.741 476.642 162.274 472.432 166.684C468.019 171.199 465.637 177.318 465.836 183.629C465.972 187.824 467.272 191.898 469.592 195.396C472.744 200.189 480.979 207.871 485.26 212.087L517.318 243.598Z"/><path fill="#5DA25B" transform="translate(-457 -142)" d="M724.811 416.046C722.274 401.675 713.701 377.908 704.08 366.993C693.502 381.131 685.473 401.043 682.615 418.542C681.916 422.823 681.567 433.65 680.035 436.811C680.788 443.313 680.589 450.117 680.391 456.862C680.217 462.813 680.044 468.719 680.527 474.334C681.314 483.495 696.274 492.661 703.838 498.236C729.057 480.187 728.808 476.218 727.879 461.405C727.498 455.34 727.003 447.456 728.096 436.043C726.845 431.577 725.731 421.262 724.811 416.046Z"/><path fill="#191A1D" transform="translate(-457 -142)" d="M587.841 267.746C587.581 260.397 581.487 254.609 574.135 254.727C569.251 254.805 564.791 257.516 562.472 261.815C560.153 266.114 560.338 271.331 562.954 275.456C565.571 279.581 570.212 281.969 575.09 281.702C582.431 281.3 588.101 275.095 587.841 267.746Z"/><path fill="#4B6D90" transform="translate(-457 -142)" d="M883.793 185.323L840.513 228.437C837.637 228.26 834.93 228.172 832.045 228.324C821.458 228.805 811.509 233.525 804.439 241.42C795.29 251.72 793.958 261.26 794.613 274.179C775.941 294.271 753.575 314.197 734.4 334.183C723.098 345.962 714.348 353.152 704.116 366.599L704.08 366.993C713.701 377.908 722.274 401.675 724.811 416.046C725.731 421.262 726.845 431.577 728.096 436.043C736.903 392.61 753.868 380.108 783.958 350.388C798.461 336.189 812.854 321.877 827.134 307.454C829.922 307.696 832.722 307.754 835.517 307.629C861.798 306.554 874.205 286.201 872.938 261.696C887.231 246.479 904.329 231.349 918.889 216.251C923.913 211.042 934.737 201.365 938.461 195.665C940.946 191.822 942.286 187.351 942.325 182.774C942.386 176.098 939.92 171.1 935.271 166.382C931.062 162.032 925.262 159.588 919.21 159.615C905.815 159.714 893.04 176.143 883.793 185.323Z"/><path fill="#191A1D" transform="translate(-457 -142)" d="M846.829 264.371C844.672 257.205 837.106 253.154 829.948 255.334C822.822 257.503 818.793 265.029 820.94 272.162C823.086 279.295 830.599 283.348 837.738 281.224C844.91 279.091 848.985 271.536 846.829 264.371Z"/><path fill="#4B6D90" transform="translate(-457 -142)" d="M778.236 495.545C778.513 479.93 779.049 449.685 777.729 445.375L739.192 445.384C739.202 446.751 739.233 448.431 739.267 450.316C739.445 459.947 739.721 474.934 737.761 480.892C734.059 492.145 711.54 506.021 701.337 513.298C688.212 522.66 674.446 533.343 661.082 542.003C657.352 564.871 631.298 574.724 612.559 584.066C611.848 586.214 611.999 602.18 612.056 608.224C612.063 608.993 612.069 609.601 612.071 610L667.58 609.991C667.584 608.939 667.601 607.509 667.621 605.852C667.705 598.835 667.839 587.738 667.231 583.963C678.683 575.586 690.559 567.323 701.808 558.735C705.268 556.717 712.053 551.517 715.611 548.946L741.945 529.928C749.893 524.204 772.162 509.198 778.111 503.594C778.12 502.064 778.171 499.207 778.236 495.545Z"/><defs><linearGradient id="gradient_0" gradientUnits="userSpaceOnUse" x1="725.00201" y1="570.67499" x2="676.98499" y2="480.31299"><stop offset="0" stop-color="#6083A4"/><stop offset="1" stop-color="#84A6C3"/></linearGradient></defs><path fill="url(#gradient_0)" transform="translate(-457 -142)" d="M777.729 445.375L739.192 445.384C739.202 446.751 739.233 448.431 739.267 450.316C739.445 459.947 739.721 474.934 737.761 480.892C734.059 492.145 711.54 506.021 701.337 513.298C688.212 522.66 674.446 533.343 661.082 542.003C657.352 564.871 631.298 574.724 612.559 584.066C611.848 586.214 611.999 602.18 612.056 608.224C612.063 608.993 612.069 609.601 612.071 610L667.58 609.991C667.584 608.939 667.601 607.509 667.621 605.852C667.705 598.835 667.839 587.738 667.231 583.963C678.683 575.586 690.559 567.323 701.808 558.735C702.58 557.343 703.386 555.97 704.227 554.618C701.549 554.384 687.595 564.262 676.698 571.977C671.234 575.845 666.539 579.169 664.419 580.401L631.471 580.268L632.005 579.989C650.879 570.056 659.321 564.261 665.854 543.465Q687.697 527.794 709.744 512.412C712.828 510.24 715.634 508.304 718.185 506.544C742.351 489.867 743.75 488.902 743.499 452.411L758.897 452.344C765.234 451.24 770.979 452.125 777.332 450.668C777.329 449.368 777.482 447.853 777.623 446.453C777.66 446.083 777.696 445.722 777.729 445.375Z"/><path fill="#3E5B78" transform="translate(-457 -142)" d="M612.056 608.224C612.063 608.993 612.069 609.601 612.071 610L666.628 609.991C666.643 610.053 666.657 610.115 666.672 610.176C666.674 610.117 666.675 610.055 666.677 609.991L667.58 609.991C667.584 608.939 667.601 607.509 667.621 605.852C667.705 598.835 667.839 587.738 667.231 583.963C666.566 586.17 666.629 596.032 666.675 603.274C666.694 606.131 666.709 608.581 666.677 609.991L666.628 609.991C664.727 602.05 662.203 592.529 661.006 584.61C658.681 584.585 654.564 584.606 649.664 584.63C636.287 584.698 617.077 584.796 612.559 584.066C611.848 586.214 611.999 602.18 612.056 608.224Z"/><path fill="#6D91B0" transform="translate(-457 -142)" d="M777.332 450.668C770.979 452.125 765.234 451.24 758.897 452.344C761.989 452.615 767.032 452.481 771.095 452.373C772.226 452.343 773.28 452.315 774.196 452.298C774.443 462.295 775.151 468.474 777.124 478.27C777.593 468.726 777.533 460.201 777.332 450.668Z"/><path fill="#4B6D90" transform="translate(-457 -142)" d="M668.915 445.349L618.984 445.367C618.607 449.059 618.646 452.798 618.684 456.526C618.698 457.893 618.712 459.259 618.706 460.621C618.667 468.718 618.76 476.836 618.853 484.957C618.981 496.078 619.108 507.203 618.897 518.286C621.998 518.672 625.111 518.893 628.182 519.111C639.875 519.942 650.959 520.73 658.43 530.384L658.782 530.843C669.984 524.107 682.304 513.539 693.802 506.199L694.261 505.322L693.682 504.534C689.179 499.8 682.457 496.574 676.894 491.378C667.556 482.654 668.163 466.655 668.694 452.691C668.79 450.158 668.884 447.692 668.915 445.349Z"/><path fill="#6D91B0" transform="translate(-457 -142)" d="M668.915 445.349L618.984 445.367C619.787 453.661 619.712 467.225 619.65 478.649C619.627 482.703 619.607 486.488 619.627 489.672C622.369 485.054 623.365 458.617 623.429 452.338C630.674 452.224 637.874 452.291 645.057 452.359C651.554 452.42 658.038 452.481 664.529 452.407C664.511 454.036 664.47 455.698 664.429 457.38C664.104 470.626 663.75 485.088 674.13 494.52C674.264 494.642 674.409 494.774 674.564 494.915C678.555 498.556 689.132 508.204 693.682 504.534C689.179 499.8 682.457 496.574 676.894 491.378C667.556 482.654 668.163 466.655 668.694 452.691C668.79 450.158 668.884 447.692 668.915 445.349Z"/><path fill="#3E5B78" transform="translate(-457 -142)" d="M618.853 484.957C618.981 496.078 619.108 507.203 618.897 518.286C621.998 518.672 625.111 518.893 628.182 519.111C639.875 519.942 650.959 520.73 658.43 530.384L658.782 530.843C669.984 524.107 682.304 513.539 693.802 506.199C687.918 506.042 686.63 506.621 681.61 509.647C674.349 514.025 667.288 518.699 660.184 523.325C649.021 513.45 637.096 514.371 622.752 512.929C622.579 506.52 622.71 503.62 620.692 497.586L620.641 498.272C619.324 496.117 619.447 493.552 619.571 490.981C619.592 490.544 619.613 490.107 619.627 489.672C619.607 486.488 619.627 482.703 619.65 478.649C619.712 467.225 619.787 453.661 618.984 445.367C618.607 449.059 618.646 452.798 618.684 456.526C618.698 457.893 618.712 459.259 618.706 460.621C618.667 468.718 618.76 476.836 618.853 484.957Z"/><path fill="#3E5B78" transform="translate(-457 -142)" d="M514.608 457.157C513.895 457.163 513.181 457.169 512.466 457.175C513.347 460.142 514.265 463.937 515.877 466.489C526.736 488.642 550.718 500.417 573.007 508.163C580.14 510.642 600.61 516.028 608.56 516.484C608.989 513.506 609.016 495.823 608.899 492.166C608.773 488.235 608.888 483.397 609.006 478.408C609.185 470.84 609.372 462.925 608.742 457.307L534.975 457.326C528.137 457.044 521.422 457.101 514.608 457.157Z"/><path fill="#6D91B0" transform="translate(-457 -142)" d="M608.742 457.307L534.975 457.326C527.44 457.875 520.413 457.593 513.074 457.96C538.924 468.124 580.392 478.698 608.35 480.175C608.352 478.773 608.338 477.165 608.324 475.447C608.275 469.397 608.215 461.972 608.742 457.307Z"/><path fill="#4B6D90" transform="translate(-457 -142)" d="M535.158 483.538C528.19 478.423 521.913 467.417 515.877 466.489C526.736 488.642 550.718 500.417 573.007 508.163C580.14 510.642 600.61 516.028 608.56 516.484C608.416 514.892 608.191 513.32 607.979 511.735C607.556 511.29 575.067 503.423 571.227 501.949C559.555 497.469 544.694 490.539 535.158 483.538Z"/><defs><linearGradient id="gradient_1" gradientUnits="userSpaceOnUse" x1="733.565" y1="545.841" x2="795.40802" y2="598.44202"><stop offset="0" stop-color="#45678A"/><stop offset="1" stop-color="#6B8EB0"/></linearGradient></defs><path fill="url(#gradient_1)" transform="translate(-457 -142)" d="M763.367 527.172C749.869 536.619 736.455 546.741 722.845 555.916C733.067 564.563 747.181 575.649 756.746 584.399C756.048 588.887 756.282 605.115 756.63 610.027L811.684 610.078C811.681 601.417 811.778 592.757 811.976 584.099C809.909 583.111 807.821 582.135 805.732 581.16C781.733 569.95 757.609 558.681 763.367 527.172Z"/><path fill="#3E5B78" transform="translate(-457 -142)" d="M811.684 610.078C811.681 601.417 811.778 592.757 811.976 584.099C805.97 584.983 795.403 584.894 784.945 584.805C776.813 584.737 768.746 584.668 762.941 585.059C761.403 593.487 758.936 601.777 757.465 610.028L757.268 610.028C757.144 604.29 757.14 586.844 756.746 584.399C756.048 588.887 756.282 605.115 756.63 610.027L757.268 610.028C757.277 610.409 757.286 610.738 757.295 611.008C757.35 610.681 757.407 610.355 757.465 610.028L811.684 610.078Z"/><path fill="#4B6D90" transform="translate(-457 -142)" d="M788.523 451.327C788.537 451.661 788.552 451.998 788.562 452.342C788.558 455.824 788.537 459.363 788.515 462.925C788.463 471.563 788.409 480.334 788.606 488.741L788.673 496.075C801.095 487.622 812.523 482.922 826.94 478.629C835.744 476.007 848.326 476.679 855.533 471.281C859.041 468.654 859.856 464.431 860.233 460.335L860.122 451.64C860.109 450.991 860.124 450.437 860.137 449.943C860.179 448.351 860.205 447.374 859.236 445.804C856.735 444.999 791.483 445.075 789.092 445.778C788.366 447.624 788.441 449.399 788.523 451.327Z"/><path fill="#6D91B0" transform="translate(-457 -142)" d="M788.523 451.327C788.537 451.661 788.552 451.998 788.562 452.342C812.417 452.353 836.272 452.119 860.122 451.64C860.109 450.991 860.124 450.437 860.137 449.943C860.179 448.351 860.205 447.374 859.236 445.804C856.735 444.999 791.483 445.075 789.092 445.778C788.366 447.624 788.441 449.399 788.523 451.327Z"/><path fill="#3E5B78" transform="translate(-457 -142)" d="M855.533 471.281C859.041 468.654 859.856 464.431 860.233 460.335C858.451 462.218 854.394 466.762 852.242 467.51C839.709 471.868 828.662 471.665 815.506 476.235C810.323 478.035 789.615 488.588 788.606 488.741L788.673 496.075C801.095 487.622 812.523 482.922 826.94 478.629C835.744 476.007 848.326 476.679 855.533 471.281Z"/><path fill="#3E5B78" transform="translate(-457 -142)" d="M746.055 588.718C741.811 584.975 717.145 563.806 713.925 562.565C703.034 570.933 689.116 581.063 677.79 588.827L677.878 607.595C689.769 599.956 699.074 597.768 713.298 597.59C726.855 598.471 734.368 599.917 745.926 607.384L746.055 588.718Z"/><path fill="#4B6D90" transform="translate(-457 -142)" d="M746.055 588.718C741.811 584.975 717.145 563.806 713.925 562.565C713.033 569.26 713.226 590.04 713.298 597.59C726.855 598.471 734.368 599.917 745.926 607.384L746.055 588.718Z"/><path fill="#F7A324" transform="translate(-457 -142)" d="M692.889 264.591C692.631 264.606 692.398 264.619 692.191 264.63C690.797 268.565 700.822 302.91 702.82 307.72L704.02 308.685C706.813 307.347 707.101 303.835 707.819 300.919C708.203 299.425 708.811 297.266 709.523 294.734C712.204 285.207 716.367 270.409 715.71 265.979C713.282 263.452 698.128 264.299 692.889 264.591Z"/><path fill="#F7A324" transform="translate(-457 -142)" d="M687.778 314.225C688.295 309.764 678.734 286.666 675.625 284.443C659.052 297.254 659.866 297.781 670.252 304.515C673.024 306.312 676.478 308.551 680.465 311.584C682.488 313.103 684.315 314.914 686.694 315.08L687.778 314.225Z"/><path fill="#F7A324" transform="translate(-457 -142)" d="M745.48 297.119C745.278 292.661 734.934 285.232 731.09 284.811C730.767 285.605 730.247 286.814 729.607 288.299C726.273 296.04 719.701 311.299 721.026 314.579C723.72 315.225 726.276 313.058 728.493 311.179C728.896 310.837 729.288 310.504 729.668 310.2C734.268 306.899 744.14 301.504 745.48 297.119Z"/></g></svg>